<svg>
    <symbol id="world" viewBox="0 0 29 29" fill="none" xmlns="http://www.w3.org/2000/svg">
        <path opacity=".5"
            d="M14.5 28C21.956 28 28 21.956 28 14.5S21.956 1 14.5 1m0 27C7.044 28 1 21.956 1 14.5S7.044 1 14.5 1m0 27c3.682 0 4.91-6.136 4.91-13.5S18.181 1 14.5 1m0 27c-3.682 0-4.91-6.136-4.91-13.5S10.819 1 14.5 1M2.227 19.41h24.546M2.227 9.59h24.546"
            stroke="#002527" stroke-width="2" />
    </symbol>

    <symbol id="mail" viewBox="0 0 128 128" xmlns="http://www.w3.org/2000/svg">
        <path
            d="M116.73,31.83a3,3,0,0,0-4.2-.61L64.14,67.34a1,1,0,0,1-1.2,0L15.5,31.06a3,3,0,1,0-3.64,4.77L49.16,64.36,12.27,92.16A3,3,0,1,0,15.88,97L54.11,68.14l5.18,4a7,7,0,0,0,8.43.06l5.44-4.06L111.84,97a3,3,0,1,0,3.59-4.81L78.17,64.35,116.12,36A3,3,0,0,0,116.73,31.83Z" />
        <path
            d="M113,19H15A15,15,0,0,0,0,34V94a15,15,0,0,0,15,15h98a15,15,0,0,0,15-15V34A15,15,0,0,0,113,19Zm9,75a9,9,0,0,1-9,9H15a9,9,0,0,1-9-9V34a9,9,0,0,1,9-9h98a9,9,0,0,1,9,9Z" />
    </symbol>

    <symbol id="telegram" viewBox="0 0 56 55" xmlns="http://www.w3.org/2000/svg">
        <path
            d="M28.479 0C13.286 0 .979 12.31.979 27.5S13.289 55 28.479 55c15.192 0 27.5-12.31 27.5-27.5S43.669 0 28.479 0zm13.507 18.84l-4.514 21.27c-.333 1.507-1.231 1.873-2.484 1.163l-6.875-5.067-3.316 3.194c-.365.365-.676.675-1.385.675l.488-6.997 12.74-11.51c.555-.489-.122-.766-.855-.278l-15.746 9.913-6.786-2.119c-1.475-.465-1.508-1.474.31-2.184l26.514-10.224c1.231-.444 2.306.3 1.907 2.162l.002.002z" />
    </symbol>

    <symbol id="instagram" viewBox="0 0 55 55" xmlns="http://www.w3.org/2000/svg">
        <path fill-rule="evenodd" clip-rule="evenodd"
            d="M27.49 54.979c15.181 0 27.489-12.308 27.489-27.49C54.979 12.307 42.67 0 27.489 0 12.307 0 0 12.307 0 27.49c0 15.18 12.307 27.488 27.49 27.488zm0-42.564c-4.096 0-4.608.016-6.216.09-1.603.074-2.7.329-3.66.7a7.39 7.39 0 00-2.668 1.74 7.394 7.394 0 00-1.74 2.67c-.372.958-.628 2.055-.701 3.66-.073 1.607-.09 2.12-.09 6.215 0 4.093.016 4.606.09 6.216.074 1.603.329 2.7.7 3.659a7.39 7.39 0 001.74 2.67 7.397 7.397 0 002.67 1.737c.96.373 2.056.63 3.66.702 1.607.073 2.12.09 6.214.09 4.095 0 4.608-.016 6.217-.09 1.603-.074 2.7-.33 3.659-.702a7.394 7.394 0 002.67-1.737 7.397 7.397 0 001.737-2.671c.373-.96.629-2.056.702-3.66.072-1.607.09-2.12.09-6.215 0-4.093-.016-4.606-.09-6.216-.074-1.603-.33-2.7-.702-3.659a7.364 7.364 0 00-1.738-2.668 7.416 7.416 0 00-2.67-1.74c-.959-.372-2.055-.628-3.661-.7-1.606-.074-2.119-.091-6.214-.091zm0 2.716c4.024 0 4.501.015 6.09.088 1.471.067 2.269.312 2.8.519a4.678 4.678 0 011.734 1.127 4.68 4.68 0 011.127 1.733c.207.532.452 1.33.52 2.8.072 1.59.087 2.067.087 6.091 0 4.026-.015 4.502-.088 6.092-.067 1.47-.312 2.268-.52 2.8a4.68 4.68 0 01-1.126 1.733 4.682 4.682 0 01-1.733 1.127c-.532.207-1.33.452-2.8.52-1.59.072-2.065.087-6.092.087-4.026 0-4.502-.015-6.091-.088-1.47-.067-2.268-.312-2.8-.519a4.68 4.68 0 01-1.734-1.127 4.68 4.68 0 01-1.126-1.733c-.207-.532-.452-1.33-.52-2.8-.072-1.59-.087-2.067-.087-6.092 0-4.024.015-4.501.087-6.091.068-1.47.313-2.268.52-2.8a4.675 4.675 0 011.126-1.733 4.68 4.68 0 011.734-1.127c.532-.207 1.33-.452 2.8-.52 1.59-.072 2.066-.087 6.091-.087zm1.461 17.177a5.028 5.028 0 01-3.387-.171 5.029 5.029 0 115.482-8.204 5.029 5.029 0 01-2.095 8.375zM24.524 20.33a7.749 7.749 0 105.93 14.317 7.749 7.749 0 00-5.93-14.317zm12.852-.03a1.831 1.831 0 11-3.352-1.475 1.831 1.831 0 013.352 1.474z" />
    </symbol>

    <symbol id="search" viewBox="0 0 24 24" xmlns="http://www.w3.org/2000/svg">
        <path
            d="M9.606 2.4a7.204 7.204 0 100 14.409 7.204 7.204 0 000-14.409zM0 9.605a9.607 9.607 0 1117.195 5.891l6.468 6.469a1.2 1.2 0 01-1.698 1.698l-6.468-6.469A9.606 9.606 0 010 9.605z" />
    </symbol>

    <symbol id="arrow-right" viewBox="0 0 28 16" xmlns="http://www.w3.org/2000/svg">
        <path
            d="M27.707 8.707a1 1 0 000-1.414L21.343.929a1 1 0 10-1.414 1.414L25.586 8l-5.657 5.657a1 1 0 001.414 1.414l6.364-6.364zM0 9h27V7H0v2z" />
    </symbol>

    <symbol id="chevron-right" xmlns="http://www.w3.org/2000/svg" viewBox="0 0 407.436 407.436"
        xml:space="preserve">
        <path d="M112.814 0L91.566 21.178l181.946 182.54-181.946 182.54 21.248 21.178 203.055-203.718z"/>
    </symbol>

    <symbol id="chevron-left" xmlns="http://www.w3.org/2000/svg" viewBox="0 0 407.436 407.436"
        xml:space="preserve">
        <path d="M315.869 21.178L294.621 0 91.566 203.718l203.055 203.718 21.248-21.178-181.945-182.54z"/>
    </symbol>

    <symbol id="arrow-down" viewBox="0 0 24 25" xmlns="http://www.w3.org/2000/svg">
        <path
            d="M10.94 24.06a1.5 1.5 0 002.12 0l9.547-9.545a1.5 1.5 0 10-2.122-2.122L12 20.88l-8.485-8.486a1.5 1.5 0 10-2.122 2.122l9.546 9.546zM10.5 0v23h3V0h-3z" />
    </symbol>

    <symbol id="map-arrow" viewBox="0 0 80 26" xmlns="http://www.w3.org/2000/svg">
        <path
            d="M68 2h1.5V.5H68V2zm-1.06 23.06a1.5 1.5 0 002.12 0l9.547-9.545a1.5 1.5 0 10-2.122-2.122L68 21.88l-8.485-8.486a1.5 1.5 0 10-2.122 2.122l9.546 9.546zM0 3.5h68v-3H0v3zM66.5 2v22h3V2h-3z" />
    </symbol>

    <symbol id="chevron-up" viewBox="0 0 33 17" fill="none" xmlns="http://www.w3.org/2000/svg">
        <path opacity=".5" d="M1 16L15.11 2.346a2 2 0 012.78 0L32 16" stroke="#000" stroke-width="2" />
    </symbol>

    <symbol id="chevron-top" viewBox="0 0 16 9" fill="none" xmlns="http://www.w3.org/2000/svg">
        <path d="M15 8L8 1 1 8" stroke="#0B959E" />
    </symbol>

    <symbol id="chevron-down" viewBox="0 0 13 7" fill="none" xmlns="http://www.w3.org/2000/svg">
        <path d="M1 1l5.5 5L12 1" stroke="#fff" />
    </symbol>

    <symbol id="map" viewBox="0 0 28 36" xmlns="http://www.w3.org/2000/svg">
        <path
            d="M12.561 35.28C1.966 20.463 0 18.944 0 13.5 0 6.044 6.267 0 14 0s14 6.044 14 13.5c0 5.444-1.966 6.96-12.561 21.774a1.743 1.743 0 01-.625.533 1.805 1.805 0 01-1.62.003 1.734 1.734 0 01-.628-.53l-.003-.006-.002.006zM14 19.125a5.95 5.95 0 004.125-1.647 5.525 5.525 0 001.708-3.978 5.525 5.525 0 00-1.708-3.977A5.945 5.945 0 0014 7.875c-1.547 0-3.03.593-4.125 1.648A5.525 5.525 0 008.167 13.5c0 1.492.614 2.923 1.708 3.978A5.945 5.945 0 0014 19.125z" />
    </symbol>

    <symbol id="time" viewBox="0 0 36 36" xmlns="http://www.w3.org/2000/svg">
        <path
            d="M25.588 10.352c2.107 2.113 3.161 4.662 3.161 7.648 0 2.986-1.053 5.535-3.161 7.648-2.108 2.113-4.651 3.169-7.63 3.169-2.98 0-5.508-1.07-7.588-3.211L17.958 18V7.183c2.979 0 5.522 1.056 7.63 3.17zM18 0c4.974 0 9.218 1.76 12.73 5.282C34.245 8.802 36 13.042 36 18s-1.756 9.197-5.27 12.718C27.219 34.24 22.975 36 18 36s-9.218-1.76-12.73-5.282C1.755 27.198 0 22.958 0 18S1.756 8.803 5.27 5.282C8.781 1.76 13.025 0 18 0zm0 32.45c3.962 0 7.349-1.408 10.16-4.225C30.97 25.408 32.374 22 32.374 18s-1.405-7.409-4.216-10.225C25.35 4.958 21.962 3.549 18 3.549c-3.963 0-7.349 1.409-10.16 4.226C5.03 10.59 3.626 14 3.626 18s1.405 7.409 4.216 10.225c2.81 2.817 6.196 4.226 10.159 4.226z" />
    </symbol>

    <symbol id="phone" viewBox="0 0 36 36" xmlns="http://www.w3.org/2000/svg">
        <path
            d="M35.339 28.2l-8.215-7.47a2.022 2.022 0 00-2.81.088l-4.837 4.973c-1.164-.222-3.504-.952-5.913-3.355-2.409-2.41-3.138-4.757-3.354-5.913l4.969-4.837a2.02 2.02 0 00.087-2.811L7.799.662A2.02 2.02 0 004.988.486L.603 4.247A2.02 2.02 0 00.017 5.56c-.03.505-.609 12.472 8.671 21.756C16.783 35.408 26.924 36 29.717 36c.408 0 .659-.012.725-.016a2.01 2.01 0 001.31-.588l3.758-4.387a2.014 2.014 0 00-.171-2.81z" />
    </symbol>

    <symbol id="telegram" viewBox="0 0 36 31" xmlns="http://www.w3.org/2000/svg">
        <path
            d="M33.57.198L1.681 12.467c-2.176.872-2.164 2.083-.4 2.623l8.188 2.548L28.412 5.714c.895-.544 1.714-.251 1.041.345L14.106 19.878h-.004l.004.002-.565 8.42c.827 0 1.192-.38 1.656-.826l3.977-3.858 8.272 6.095c1.525.838 2.62.408 3-1.408l5.43-25.532c.556-2.223-.85-3.23-2.306-2.573z" />
    </symbol>

    <symbol id="instagram" viewBox="0 0 36 37" xmlns="http://www.w3.org/2000/svg">
        <path
            d="M17.995 12.12c-3.305 0-6.002 2.697-6.002 6.003 0 3.305 2.697 6.002 6.002 6.002 3.305 0 6.003-2.697 6.003-6.002 0-3.306-2.698-6.003-6.003-6.003zm18.003 6.003c0-2.486.023-4.95-.117-7.43-.14-2.882-.797-5.44-2.904-7.548C30.864 1.034 28.31.381 25.43.241 22.944.101 20.48.124 18 .124c-2.486 0-4.95-.023-7.43.117-2.882.14-5.44.797-7.547 2.904C.91 5.257.258 7.811.118 10.693c-.14 2.485-.117 4.948-.117 7.43 0 2.48-.022 4.948.117 7.43.14 2.881.797 5.44 2.905 7.547 2.112 2.112 4.665 2.764 7.547 2.904 2.485.14 4.948.117 7.43.117 2.485 0 4.948.023 7.43-.117 2.881-.14 5.44-.797 7.547-2.904 2.111-2.112 2.764-4.666 2.904-7.547.144-2.482.117-4.945.117-7.43zm-18.003 9.235a9.223 9.223 0 01-9.235-9.235 9.223 9.223 0 019.235-9.236 9.223 9.223 0 019.236 9.236 9.223 9.223 0 01-9.236 9.235zm9.614-16.692a2.154 2.154 0 01-2.157-2.157c0-1.194.964-2.157 2.157-2.157a2.154 2.154 0 011.993 2.982 2.153 2.153 0 01-1.993 1.332z" />
    </symbol>

    <symbol id="menu" viewBox="0 0 42 32" xmlns="http://www.w3.org/2000/svg">
        <path
            d="M0 2.456C0 1.319 1.115.399 2.487.399h20.025c.66 0 1.293.217 1.76.602.466.386.728.91.728 1.455s-.262 1.069-.729 1.454c-.466.386-1.099.603-1.759.603H2.488c-.66 0-1.293-.217-1.76-.603C.263 3.525 0 3.001 0 2.456zm0 13.37c0-1.136.937-2.056 2.09-2.056h37.82c.555 0 1.086.216 1.478.602.392.386.612.909.612 1.454a2.04 2.04 0 01-.612 1.455 2.106 2.106 0 01-1.477.603H2.088a2.106 2.106 0 01-1.477-.603A2.04 2.04 0 010 15.827zM2.457 27.14c-.652 0-1.277.216-1.737.602-.461.386-.72.91-.72 1.455s.259 1.068.72 1.454c.46.386 1.085.603 1.737.603h29.657c.652 0 1.277-.217 1.738-.603.46-.386.72-.909.72-1.454 0-.546-.26-1.07-.72-1.455-.461-.386-1.086-.602-1.738-.602H2.457z"
            fill="#096C73" />
    </symbol>

    <symbol id="menu_2" viewBox="0 0 24 24" xmlns="http://www.w3.org/2000/svg">
        <path
            d="M5.9199,11.4697 C7.3299,11.4697 8.4599,12.6107 8.4599,14.0307 L8.4599,14.0307 L8.4599,17.4397 C8.4599,18.8497 7.3299,19.9997 5.9199,19.9997 L5.9199,19.9997 L2.5399,19.9997 C1.1399,19.9997 -0.0001,18.8497 -0.0001,17.4397 L-0.0001,17.4397 L-0.0001,14.0307 C-0.0001,12.6107 1.1399,11.4697 2.5399,11.4697 L2.5399,11.4697 Z M17.46,11.4697 C18.86,11.4697 20,12.6107 20,14.0307 L20,14.0307 L20,17.4397 C20,18.8497 18.86,19.9997 17.46,19.9997 L17.46,19.9997 L14.08,19.9997 C12.67,19.9997 11.54,18.8497 11.54,17.4397 L11.54,17.4397 L11.54,14.0307 C11.54,12.6107 12.67,11.4697 14.08,11.4697 L14.08,11.4697 Z M5.9199,-9.32587341e-14 C7.3299,-9.32587341e-14 8.4599,1.15 8.4599,2.561 L8.4599,2.561 L8.4599,5.97 C8.4599,7.39 7.3299,8.53 5.9199,8.53 L5.9199,8.53 L2.5399,8.53 C1.1399,8.53 -0.0001,7.39 -0.0001,5.97 L-0.0001,5.97 L-0.0001,2.561 C-0.0001,1.15 1.1399,-9.32587341e-14 2.5399,-9.32587341e-14 L2.5399,-9.32587341e-14 Z M17.46,-9.32587341e-14 C18.86,-9.32587341e-14 20,1.15 20,2.561 L20,2.561 L20,5.97 C20,7.39 18.86,8.53 17.46,8.53 L17.46,8.53 L14.08,8.53 C12.67,8.53 11.54,7.39 11.54,5.97 L11.54,5.97 L11.54,2.561 C11.54,1.15 12.67,-9.32587341e-14 14.08,-9.32587341e-14 L14.08,-9.32587341e-14 Z" />
    </symbol>

    <symbol id="times" viewBox="0 0 33 32" fill="none" xmlns="http://www.w3.org/2000/svg">
        <path
            d="M19.76 15.998l11.456-11.43A2.676 2.676 0 0027.433.783L16.003 12.24 4.571.784A2.675 2.675 0 10.788 4.567l11.457 11.43L.788 27.429a2.664 2.664 0 000 3.784 2.665 2.665 0 003.784 0l11.43-11.457 11.43 11.457a2.665 2.665 0 003.784 0 2.664 2.664 0 000-3.784L19.76 15.998z"
            fill="#096C73" />
    </symbol>

    <symbol id="logout_admin" viewBox="0 0 24 24" fill="none" xmlns="http://www.w3.org/2000/svg">
        <path fill="none" d="M0 0h24v24H0z" />
        <path fill="#ffffff"
            d="M12 22C6.477 22 2 17.523 2 12S6.477 2 12 2a9.985 9.985 0 0 1 8 4h-2.71a8 8 0 1 0 .001 12h2.71A9.985 9.985 0 0 1 12 22zm7-6v-3h-8v-2h8V8l5 4-5 4z" />
    </symbol>

    <symbol id="information" viewBox="0 0 138 138" xmlns="http://www.w3.org/2000/svg">
        <path
            d="M64,1C29.3,1,1,29.3,1,64s28.3,63,63,63s63-28.3,63-63S98.7,1,64,1z M64,119C33.7,119,9,94.3,9,64S33.7,9,64,9   s55,24.7,55,55S94.3,119,64,119z" />
        <rect height="40" width="8" x="60" y="54.5" />
        <rect height="8" width="8" x="60" y="35.5" />
    </symbol>

    <symbol id="add_menu" viewBox="0 0 24 24" xmlns="http://www.w3.org/2000/svg">
        <path fill="none" d="M0 0h24v24H0z" />
        <path
            d="M18 15l-.001 3H21v2h-3.001L18 23h-2l-.001-3H13v-2h2.999L16 15h2zm-7 3v2H3v-2h8zm10-7v2H3v-2h18zm0-7v2H3V4h18z" />
    </symbol>

    <symbol id="chat_comment" viewBox="0 0 24 24" xmlns="http://www.w3.org/2000/svg">
        <path
            d="M10.7484,0.0003 C13.6214,0.0003 16.3214,1.1173 18.3494,3.1463 C22.5414,7.3383 22.5414,14.1583 18.3494,18.3503 C16.2944,20.4063 13.5274,21.4943 10.7244,21.4943 C9.1964,21.4943 7.6584,21.1713 6.2194,20.5053 C5.7954,20.3353 5.3984,20.1753 5.1134,20.1753 C4.7854,20.1773 4.3444,20.3293 3.9184,20.4763 C3.0444,20.7763 1.9564,21.1503 1.1514,20.3483 C0.3494,19.5453 0.7194,18.4603 1.0174,17.5873 C1.1644,17.1573 1.3154,16.7133 1.3154,16.3773 C1.3154,16.1013 1.1824,15.7493 0.9784,15.2423 C-0.8946,11.1973 -0.0286,6.3223 3.1484,3.1473 C5.1764,1.1183 7.8754,0.0003 10.7484,0.0003 Z M10.7494,1.5003 C8.2764,1.5003 5.9534,2.4623 4.2084,4.2083 C1.4744,6.9403 0.7304,11.1353 2.3554,14.6483 C2.5894,15.2273 2.8154,15.7913 2.8154,16.3773 C2.8154,16.9623 2.6144,17.5513 2.4374,18.0713 C2.2914,18.4993 2.0704,19.1453 2.2124,19.2873 C2.3514,19.4313 3.0014,19.2043 3.4304,19.0573 C3.9454,18.8813 4.5294,18.6793 5.1084,18.6753 C5.6884,18.6753 6.2354,18.8953 6.8144,19.1283 C10.3614,20.7683 14.5564,20.0223 17.2894,17.2903 C20.8954,13.6823 20.8954,7.8133 17.2894,4.2073 C15.5434,2.4613 13.2214,1.5003 10.7494,1.5003 Z M14.6963,10.163 C15.2483,10.163 15.6963,10.61 15.6963,11.163 C15.6963,11.716 15.2483,12.163 14.6963,12.163 C14.1443,12.163 13.6923,11.716 13.6923,11.163 C13.6923,10.61 14.1353,10.163 14.6873,10.163 L14.6963,10.163 Z M10.6875,10.163 C11.2395,10.163 11.6875,10.61 11.6875,11.163 C11.6875,11.716 11.2395,12.163 10.6875,12.163 C10.1355,12.163 9.6835,11.716 9.6835,11.163 C9.6835,10.61 10.1255,10.163 10.6785,10.163 L10.6875,10.163 Z M6.6783,10.163 C7.2303,10.163 7.6783,10.61 7.6783,11.163 C7.6783,11.716 7.2303,12.163 6.6783,12.163 C6.1263,12.163 5.6743,11.716 5.6743,11.163 C5.6743,10.61 6.1173,10.163 6.6693,10.163 L6.6783,10.163 Z" />
    </symbol>

    <symbol id="market" viewBox="0 0 29 29" xmlns="http://www.w3.org/2000/svg">
        <path
            d="M24,29H8a3,3,0,0,1-3-3V16a1,1,0,0,1,2,0V26a1,1,0,0,0,1,1H24a1,1,0,0,0,1-1V16a1,1,0,0,1,2,0V26A3,3,0,0,1,24,29Z" />
        <path
            d="M15,29H10a1,1,0,0,1-1-1V22a3,3,0,0,1,3-3h1a3,3,0,0,1,3,3v6A1,1,0,0,1,15,29Zm-4-2h3V22a1,1,0,0,0-1-1H12a1,1,0,0,0-1,1Z" />
        <path
            d="M25,17a4,4,0,0,1-4-4,1,1,0,0,1,2,0,2,2,0,0,0,4,0v-.76L24.38,7H7.62L5,12.24V13a2,2,0,0,0,4,0,1,1,0,0,1,2,0,4,4,0,0,1-8,0V12a1,1,0,0,1,.11-.45l3-6A1,1,0,0,1,7,5H25a1,1,0,0,1,.89.55l3,6A1,1,0,0,1,29,12v1A4,4,0,0,1,25,17Z" />
        <path d="M13,17a4,4,0,0,1-4-4,1,1,0,0,1,2,0,2,2,0,0,0,4,0,1,1,0,0,1,2,0A4,4,0,0,1,13,17Z" />
        <path d="M19,17a4,4,0,0,1-4-4,1,1,0,0,1,2,0,2,2,0,0,0,4,0,1,1,0,0,1,2,0A4,4,0,0,1,19,17Z" />
        <path d="M22,22H19a1,1,0,0,1,0-2h3a1,1,0,0,1,0,2Z" />
        <rect fill="none" height="32" width="32" />
    </symbol>

    <symbol id="packet" viewBox="0 0 288.86 288.86" xmlns="http://www.w3.org/2000/svg">
        <path
            d="m271.292,241.877l-12.181-160.092c-1.74-13.921-12.181-24.362-26.102-24.362h-45.243v-15.66c0-22.622-19.142-41.763-41.763-41.763s-41.763,19.141-41.763,41.763v15.661h-48.723c-13.921,0-24.362,10.441-26.102,24.362l-12.181,160.091c0,12.181 3.48,24.362 12.181,33.062 6.96,8.701 19.141,13.921 31.322,13.921h168.792c12.181,0 24.362-5.22 29.582-13.921 8.701-8.7 13.921-20.881 12.181-33.062zm-149.651-200.114c-1.42109e-14-13.921 10.441-24.362 24.362-24.362 13.921,0 24.362,10.441 24.362,24.362v15.661h-48.723v-15.661zm128.769,220.995c-5.22,5.22-12.181,8.701-19.141,8.701h-168.793c-6.96,0-13.921-3.48-19.141-8.701s-6.96-12.181-6.96-19.141l12.181-160.091c0-5.22 3.48-8.701 8.701-8.701h46.983v20.882c0,5.22 3.48,8.701 8.701,8.701 5.22,0 8.701-3.48 8.701-8.701v-20.882h48.723v20.882c0,5.22 3.48,8.701 8.701,8.701 3.48,0 8.701-3.48 8.701-8.701v-20.882h48.723c5.22,0 8.701,3.48 8.701,8.701l12.181,160.091c-0.002,6.96-1.742,13.921-6.962,19.141z" />
    </symbol>

    <symbol id="parameters" viewBox="0 0 32 32" xmlns="http://www.w3.org/2000/svg">
        <path
            d="M32,16l-6-6v4h-2V8h-6V6h4l-6-6l-6,6h4v2H8v6H6v-4l-6,6l6,6v-4h2v6h6v2h-4l6,6l1.721-1.723
			C19.205,31.355,21.025,31.999,23,32c4.971-0.002,8.998-4.029,9-9c-0.001-1.975-0.645-3.795-1.723-5.277L32,16z M14.059,22H10V10
			h12v4.059C17.828,14.52,14.52,17.829,14.059,22z M23,29.883c-3.801-0.009-6.876-3.084-6.885-6.883
			c0.009-3.801,3.084-6.876,6.885-6.884c3.799,0.008,6.874,3.083,6.883,6.884C29.874,26.799,26.799,29.874,23,29.883z" />
        <path
            d="M26.092,21.393l1.188-1.187l-1.416-1.415l-1.165,1.166c-0.22-0.123-0.452-0.221-0.697-0.294V18h-2
			v1.662c-0.229,0.068-0.446,0.158-0.651,0.27l-1.142-1.14l-1.415,1.415l1.141,1.141C19.82,21.555,19.73,21.771,19.662,22H18v2
			h1.662c0.072,0.246,0.172,0.479,0.295,0.698l-1.165,1.163l1.413,1.416l1.188-1.188c0.192,0.102,0.395,0.182,0.605,0.245V28H24
			v-1.665c0.229-0.067,0.445-0.158,0.65-0.271l1.213,1.213l1.414-1.416l-1.213-1.211c0.111-0.205,0.201-0.422,0.271-0.65H28v-2.001
			h-1.663C26.273,21.787,26.191,21.586,26.092,21.393z M22.999,24.499c-0.829-0.002-1.498-0.671-1.501-1.5
			c0.003-0.829,0.672-1.498,1.501-1.501c0.829,0.003,1.498,0.672,1.5,1.501C24.497,23.828,23.828,24.497,22.999,24.499z" />
    </symbol>

    <symbol id="settings" viewBox="0 0 128 128" xmlns="http://www.w3.org/2000/svg">
        <path
            d="M64,39A25,25,0,1,0,89,64,25,25,0,0,0,64,39Zm0,44A19,19,0,1,1,83,64,19,19,0,0,1,64,83Z" />
        <path
            d="M121,48h-8.93a1,1,0,0,1-.94-.68,49.9,49.9,0,0,0-2-4.85,1,1,0,0,1,.18-1.15L115.62,35a7,7,0,0,0,0-9.9L102.89,12.38a7,7,0,0,0-9.9,0l-6.31,6.31a1,1,0,0,1-1.15.18,49.76,49.76,0,0,0-4.85-2,1,1,0,0,1-.68-.94V7a7,7,0,0,0-7-7H55a7,7,0,0,0-7,7v8.93a1,1,0,0,1-.68.94,49.9,49.9,0,0,0-4.85,2,1,1,0,0,1-1.15-.18L35,12.38a7,7,0,0,0-9.9,0L12.38,25.11a7,7,0,0,0,0,9.9l6.31,6.31a1,1,0,0,1,.18,1.15,49.76,49.76,0,0,0-2,4.85,1,1,0,0,1-.94.68H7a7,7,0,0,0-7,7V73a7,7,0,0,0,7,7h8.93a1,1,0,0,1,.94.68,49.9,49.9,0,0,0,2,4.85,1,1,0,0,1-.18,1.15L12.38,93a7,7,0,0,0,0,9.9l12.73,12.73a7,7,0,0,0,9.9,0l6.31-6.31a1,1,0,0,1,1.15-.18,49.76,49.76,0,0,0,4.85,2,1,1,0,0,1,.68.94V121a7,7,0,0,0,7,7H73a7,7,0,0,0,7-7v-8.93a1,1,0,0,1,.68-.94,49.9,49.9,0,0,0,4.85-2,1,1,0,0,1,1.15.18L93,115.62a7,7,0,0,0,9.9,0l12.73-12.73a7,7,0,0,0,0-9.9l-6.31-6.31a1,1,0,0,1-.18-1.15,49.76,49.76,0,0,0,2-4.85,1,1,0,0,1,.94-.68H121a7,7,0,0,0,7-7V55A7,7,0,0,0,121,48Zm1,25a1,1,0,0,1-1,1h-8.93a7,7,0,0,0-6.6,4.69,43.9,43.9,0,0,1-1.76,4.26,7,7,0,0,0,1.35,8l6.31,6.31a1,1,0,0,1,0,1.41L98.65,111.38a1,1,0,0,1-1.41,0l-6.31-6.31a7,7,0,0,0-8-1.35,43.88,43.88,0,0,1-4.27,1.76,7,7,0,0,0-4.68,6.6V121a1,1,0,0,1-1,1H55a1,1,0,0,1-1-1v-8.93a7,7,0,0,0-4.69-6.6,43.9,43.9,0,0,1-4.26-1.76,7,7,0,0,0-8,1.35l-6.31,6.31a1,1,0,0,1-1.41,0L16.62,98.65a1,1,0,0,1,0-1.41l6.31-6.31a7,7,0,0,0,1.35-8,43.88,43.88,0,0,1-1.76-4.27A7,7,0,0,0,15.93,74H7a1,1,0,0,1-1-1V55a1,1,0,0,1,1-1h8.93a7,7,0,0,0,6.6-4.69,43.9,43.9,0,0,1,1.76-4.26,7,7,0,0,0-1.35-8l-6.31-6.31a1,1,0,0,1,0-1.41L29.35,16.62a1,1,0,0,1,1.41,0l6.31,6.31a7,7,0,0,0,8,1.35,43.88,43.88,0,0,1,4.27-1.76A7,7,0,0,0,54,15.93V7a1,1,0,0,1,1-1H73a1,1,0,0,1,1,1v8.93a7,7,0,0,0,4.69,6.6,43.9,43.9,0,0,1,4.26,1.76,7,7,0,0,0,8-1.35l6.31-6.31a1,1,0,0,1,1.41,0l12.73,12.73a1,1,0,0,1,0,1.41l-6.31,6.31a7,7,0,0,0-1.35,8,43.88,43.88,0,0,1,1.76,4.27,7,7,0,0,0,6.6,4.68H121a1,1,0,0,1,1,1Z" />
    </symbol>

    <symbol id="settings_1" xmlns="http://www.w3.org/2000/svg"
        xmlns:xlink="http://www.w3.org/1999/xlink" viewBox="0 0 612.013 612.012">
        <path
            d="M346.758,611.991h-81.58c-12.623,0-22.899-10.271-22.899-22.899v-53.978c-18.608-5.162-36.445-12.59-53.205-22.146
           l-38.23,38.225c-8.67,8.67-23.747,8.664-32.404-0.006l-57.648-57.668c-4.335-4.328-6.726-10.078-6.719-16.199
           c0-6.113,2.391-11.863,6.726-16.186l38.913-38.927c-9.135-16.594-16.186-34.194-21.05-52.516H22.854
           C10.251,369.692,0,359.428,0,346.799v-81.567c0-12.629,10.251-22.905,22.854-22.905H80.49
           c5.208-17.48,12.463-34.297,21.643-50.152L60.798,150.84c-4.31-4.265-6.707-9.996-6.719-16.103
           c-0.013-6.133,2.372-11.896,6.726-16.243l57.642-57.712c8.727-8.625,23.715-8.612,32.366-0.038l42.591,42.591
           c15.517-8.428,31.9-15.058,48.883-19.781v-60.67c-0.008-12.612,10.262-22.862,22.891-22.862h81.58
           c12.629,0,22.905,10.25,22.905,22.86v61.11c16.792,4.807,32.997,11.488,48.335,19.928l43.152-43.146
           c8.611-8.613,23.739-8.619,32.346-0.006l57.713,57.725c8.905,8.963,8.899,23.466-0.007,32.346l-42.399,42.406
           c8.874,15.523,15.912,31.977,21.013,49.074h59.247c12.648,0,22.95,10.27,22.95,22.905v81.574c0,12.623-10.296,22.893-22.95,22.893
           h-57.419c-4.762,17.926-11.62,35.17-20.463,51.4l40.028,40.047c8.893,8.926,8.893,23.44,0.019,32.358l-57.725,57.693
           c-8.568,8.639-23.772,8.664-32.385-0.031l-38.836-38.85c-16.613,9.621-34.259,17.117-52.619,22.357v54.416
           C369.657,601.719,359.387,611.991,346.758,611.991z M186.135,488.872l6.432,3.945c19.062,11.711,39.761,20.324,61.531,25.615
           l7.306,1.771v68.896c0,2.078,1.696,3.772,3.774,3.772h81.58c2.117,0,3.78-1.657,3.78-3.772v-69.213l7.236-1.816
           c21.482-5.395,41.984-14.109,60.938-25.902l6.451-4.016l49.515,49.533c0.963,0.975,2.078,1.115,2.658,1.115
           c0.573,0,1.689-0.136,2.62-1.084l57.737-57.705c1.453-1.461,1.46-3.871-0.02-5.351l-50.368-50.393l3.735-6.375
           c10.92-18.621,18.934-38.779,23.811-59.906l1.722-7.408h72.496c2.109,0,3.824-1.688,3.824-3.768v-81.578
           c0-2.085-1.715-3.78-3.824-3.78H515.19l-1.882-7.121c-5.354-20.298-13.654-39.665-24.671-57.578l-3.959-6.433l52.995-53.001
           c1.46-1.46,1.453-3.844-0.02-5.317l-57.688-57.699c-0.931-0.931-2.064-1.078-2.651-1.078c-0.594,0-1.729,0.14-2.664,1.084
           l-53.551,53.549l-6.388-3.787c-17.805-10.544-36.968-18.449-56.96-23.473l-7.229-1.817v-75.9c0.007-2.091-1.65-3.736-3.769-3.736
           h-81.58c-2.078,0-3.774,1.677-3.774,3.736v75.568l-7.306,1.779c-20.189,4.909-39.531,12.724-57.502,23.243l-6.369,3.729
           l-52.912-52.912c-0.937-0.931-2.084-1.077-2.677-1.077c-0.599,0-1.734,0.146-2.709,1.109L74.31,132.007
           c-0.975,0.976-1.122,2.091-1.122,2.671c0,0.574,0.141,1.664,1.084,2.594l52.02,52.013l-4.016,6.452
           c-11.348,18.226-19.858,37.937-25.309,58.579l-1.875,7.121H22.854c-2.053,0.013-3.729,1.702-3.729,3.793v81.573
           c0,2.078,1.676,3.768,3.729,3.768h70.902l1.715,7.414c4.947,21.49,13.158,41.998,24.39,60.957l3.787,6.389l-49.33,49.343
           c-0.969,0.969-1.116,2.084-1.116,2.663c0,0.58,0.141,1.703,1.109,2.664l57.661,57.683c0.969,0.969,2.091,1.115,2.678,1.115
           c0.58,0,1.708-0.142,2.677-1.115L186.135,488.872z M305.997,446.249c-77.328,0-140.242-62.907-140.242-140.229
           c0-77.328,62.914-140.242,140.242-140.242s140.235,62.914,140.235,140.242C446.232,383.34,383.325,446.249,305.997,446.249z
            M305.997,184.901c-66.791,0-121.118,54.327-121.118,121.117c0,66.777,54.327,121.104,121.118,121.104
           c66.783,0,121.11-54.327,121.11-121.104C427.107,239.229,372.78,184.901,305.997,184.901z" />

    </symbol>

    <symbol id="plus_in_circle" viewBox="0 0 32 32" xmlns="http://www.w3.org/2000/svg">
        <path
            d="M16,29A13,13,0,1,1,29,16,13,13,0,0,1,16,29ZM16,5A11,11,0,1,0,27,16,11,11,0,0,0,16,5Z" />
        <path d="M16,23a1,1,0,0,1-1-1V10a1,1,0,0,1,2,0V22A1,1,0,0,1,16,23Z" />
        <path d="M22,17H10a1,1,0,0,1,0-2H22a1,1,0,0,1,0,2Z" />
        <rect fill="none" class="cls-1" height="32" width="32" />
    </symbol>

    <symbol id="plus" viewBox="0 0 512 512" xml:space="preserve" xmlns="http://www.w3.org/2000/svg">
        <path d="M381,236H276V131c0-11-9-20-20-20s-20,9-20,20v105H131c-11,0-20,9-20,20s9,20,20,20h105v105c0,11,9,20,20,20  s20-9,20-20V276h105c11,0,20-9,20-20S392,236,381,236z"/>
    </symbol>

    <symbol id="plus_2" viewBox="0 0 32 32" xmlns="http://www.w3.org/2000/svg">
        <path
            d="M15,15 L0.992786407,15 C0.444485615,15 0,15.4438648 0,16 C0,16.5522847 0.452362061,17 0.992786407,17 L15,17 L15,31.0072136 C15,31.5555144 15.4438648,32 16,32 C16.5522847,32 17,31.5476379 17,31.0072136 L17,17 L31.0072136,17 C31.5555144,17 32,16.5561352 32,16 C32,15.4477153 31.5476379,15 31.0072136,15 L17,15 L17,0.992786407 C17,0.444485615 16.5561352,-8.15366451e-17 16,-1.8369702e-16 C15.4477153,-2.85150083e-16 15,0.452362061 15,0.992786407 L15,15 Z"
            id="Rectangle-458" stroke="none" />
    </symbol>

    <symbol id="menu_1" viewBox="0 0 24 24" xmlns="http://www.w3.org/2000/svg">
        <path
            d="M16.1169374,10.2515396 C17.7037773,10.2564483 18.9903314,11.5658018 19,13.185694 L19,13.185694 L19,16.0568451 C18.9903739,17.6782168 17.7052045,18.9901732 16.1169374,19 L16.1169374,19 L13.3044084,19 C11.7175906,18.9901299 10.4349709,17.6767599 10.4301624,16.0568451 L10.4301624,16.0568451 L10.4301624,13.185694 C10.4301624,11.5652052 11.7170062,10.2515396 13.3044084,10.2515396 L13.3044084,10.2515396 Z M4.03805104,10.251554 C4.33336015,10.2192801 4.62080553,10.3619313 4.77835184,10.618945 C4.93589815,10.8759586 4.93589815,11.2022322 4.77835184,11.4592459 C4.62080553,11.7162595 4.33336015,11.8589108 4.03805104,11.8266369 L4.03805104,11.8266369 L2.88306265,11.8266369 C2.14635371,11.8266206 1.5477702,12.4336604 1.54292343,13.1857084 L1.54292343,13.1857084 L1.54292343,16.0208576 C1.56165621,16.7668724 2.15217202,17.3657305 2.88306265,17.3799291 L2.88306265,17.3799291 L5.71322506,17.3799291 C6.06783888,17.3823266 6.4087354,17.2401982 6.66031694,16.9850625 C6.91189848,16.7299268 7.05337205,16.3828707 7.05336427,16.0208576 L7.05336427,16.0208576 L7.05336427,11.7636336 L7.04133103,11.6577296 C7.02803,11.3760616 7.16312386,11.1047905 7.4008667,10.9509055 C7.66832739,10.7777849 8.01201204,10.787984 8.26916976,10.976673 C8.52632747,11.1653621 8.64533537,11.4946628 8.56983759,11.8086359 L8.56983759,11.8086359 L8.56983759,16.047859 C8.56983759,17.6733186 7.27904647,18.9910139 5.68677494,18.9910139 L5.68677494,18.9910139 L2.88306265,18.9910139 C1.30455556,18.9575814 0.0327499024,17.6592673 -2.30926389e-14,16.047859 L-2.30926389e-14,16.047859 L-2.30926389e-14,13.1857084 C-2.30926389e-14,12.4059603 0.304027858,11.6582794 0.844961927,11.1077593 C1.385896,10.5572391 2.11923877,10.2491621 2.88306265,10.251554 L2.88306265,10.251554 Z M16.1169374,11.8266225 L13.3044084,11.8266225 C12.5691392,11.8266225 11.9730562,12.4350995 11.9730562,13.185694 L11.9730562,13.185694 L11.9730562,16.0568451 C11.9707192,16.4180285 12.110223,16.7651192 12.3604092,17.0205202 C12.6105955,17.2759211 12.9505994,17.4183327 13.3044084,17.4159469 L13.3044084,17.4159469 L16.1169374,17.4159469 C16.4707463,17.4183327 16.8107502,17.2759211 17.0609365,17.0205202 C17.3111227,16.7651192 17.4506266,16.4180285 17.4482895,16.0568451 L17.4482895,16.0568451 L17.4482895,13.185694 C17.4482895,12.8252458 17.3079959,12.4795606 17.0583245,12.2246853 C16.8086531,11.9698099 16.470026,11.8266225 16.1169374,11.8266225 L16.1169374,11.8266225 Z M16.1169374,2.66453526e-14 C17.6920006,0.0381794262 18.9586076,1.33515287 18.9911833,2.9431549 L18.9911833,2.9431549 L18.9911833,5.80530554 C19.0005942,6.58350892 18.7067619,7.33364943 18.1743377,7.89067465 C17.6419136,8.44769986 16.9145199,8.76597193 16.1522042,8.77546187 L16.1522042,8.77546187 L14.9883991,8.77546187 C14.5941202,8.73237171 14.2951195,8.39271731 14.2951195,7.98792042 C14.2951195,7.58312353 14.5941202,7.24346912 14.9883991,7.20037897 L14.9883991,7.20037897 L16.1169374,7.20037897 C16.4739098,7.19801311 16.8152051,7.05035361 17.0651331,6.79014731 C17.3150612,6.52994101 17.4529645,6.17869498 17.4482599,5.81430602 L17.4482599,5.81430602 L17.4482599,2.9431549 C17.4387613,2.19661376 16.8482359,1.59377993 16.1169374,1.58408337 L16.1169374,1.58408337 L13.3044084,1.58408337 C12.5691392,1.58408337 11.9730858,2.19256042 11.9730858,2.9431549 L11.9730858,2.9431549 L11.9730858,7.23638086 L11.9626058,7.34316049 C11.8994696,7.72660372 11.5706896,8.01513394 11.1795824,8.0104216 C10.9745563,8.00573523 10.7799061,7.91743274 10.6390951,7.76523113 C10.498284,7.61302951 10.4230394,7.40960459 10.4301624,7.20037897 L10.4301624,7.20037897 L10.4301624,2.9431549 C10.4278194,2.16341049 10.7296062,1.41478251 11.268886,0.862573639 C11.8081659,0.310364772 12.5405809,2.66453526e-14 13.3044084,2.66453526e-14 L13.3044084,2.66453526e-14 Z M5.6955917,1.02140518e-13 C7.2858537,0.00494191606 8.57381333,1.31974675 8.57865434,2.9431549 L8.57865434,2.9431549 L8.57865434,5.81430602 C8.57865434,6.5940541 8.27462648,7.341735 7.73369241,7.89225515 C7.19275835,8.44277531 6.45941557,8.75085231 5.6955917,8.74847427 L5.6955917,8.74847427 L2.88306269,8.74847427 C1.29622272,8.74355173 0.009668661,7.43419818 4.84918523e-08,5.81430602 L4.84918523e-08,5.81430602 L4.84918523e-08,2.9431549 C0.00962617479,1.32178316 1.29479552,0.0098267656 2.88306269,1.02140518e-13 L2.88306269,1.02140518e-13 Z M5.6955917,1.58408337 L2.88306269,1.58408337 C2.52541369,1.57682822 2.17995161,1.7168064 1.92453001,1.97247235 C1.66910841,2.2281383 1.52521947,2.57797928 1.52529007,2.9431549 L1.52529007,2.9431549 L1.52529007,5.81430602 C1.51801794,6.18414129 1.65873212,6.54102414 1.91495728,6.80258985 C2.17118243,7.06415556 2.52077858,7.20780267 2.88306269,7.20037897 L2.88306269,7.20037897 L5.6955917,7.20037897 C6.05256418,7.19801311 6.39385944,7.05035361 6.64378748,6.79014731 C6.89371552,6.52994101 7.03161883,6.17869498 7.0269142,5.81430602 L7.0269142,5.81430602 L7.0269142,2.9431549 C7.02210573,2.1946031 6.42885984,1.58899207 5.6955917,1.58408337 L5.6955917,1.58408337 Z" />
    </symbol>

    <symbol id="phone" xmlns="http://www.w3.org/2000/svg" viewBox="0 0 477.156 477.156"
        style="enable-background:new 0 0 477.156 477.156;" xml:space="preserve">

        <path d="M475.009,380.316l-2.375-7.156c-5.625-16.719-24.062-34.156-41-38.75l-62.688-17.125c-17-4.625-41.25,1.594-53.688,14.031
		l-22.688,22.688c-82.453-22.28-147.109-86.938-169.359-169.375L145.9,161.94c12.438-12.438,18.656-36.656,14.031-53.656
		l-17.094-62.719c-4.625-16.969-22.094-35.406-38.781-40.969L96.9,2.19c-16.719-5.563-40.563,0.063-53,12.5L9.962,48.659
		C3.899,54.69,0.024,71.94,0.024,72.003c-1.187,107.75,41.063,211.562,117.281,287.781
		c76.031,76.031,179.454,118.219,286.891,117.313c0.562,0,18.312-3.813,24.375-9.845l33.938-33.938
		C474.946,420.878,480.571,397.035,475.009,380.316z"/>
    </symbol>


    <symbol id="cash_pack1" viewBox="0 0 24 24" xmlns="http://www.w3.org/2000/svg">
        <path
            d="M19,4H5A3,3,0,0,0,2,7V17a3,3,0,0,0,3,3H19a3,3,0,0,0,3-3V7A3,3,0,0,0,19,4Zm1,10.3H17a2.3,2.3,0,0,1,0-4.6h3ZM20,8H17a4,4,0,0,0,0,8h3v1a1,1,0,0,1-1,1H5a1,1,0,0,1-1-1V7A1,1,0,0,1,5,6H19a1,1,0,0,1,1,1Zm-4,4a1,1,0,1,0,1-1A1,1,0,0,0,16,12Z" />
    </symbol>

    <symbol id="credit_card1" xmlns="http://www.w3.org/2000/svg" viewBox="0 0 485.211 485.211">
        <path
            d="M318.423,303.258c11.696,0,22.271-4.56,30.322-11.817c8.056,7.258,18.631,11.817,30.331,11.817
			c25.109,0,45.485-20.376,45.485-45.485c0-25.114-20.376-45.49-45.485-45.49c-11.7,0-22.275,4.562-30.331,11.815
			c-8.051-7.252-18.626-11.815-30.322-11.815c-25.118,0-45.49,20.376-45.49,45.49C272.933,282.882,293.305,303.258,318.423,303.258z
			" />
        <path
            d="M454.889,60.651H90.978c-16.762,0-30.327,13.565-30.327,30.327v90.978h30.327h151.629h212.282v151.629H242.606v30.321
			h212.282c16.759,0,30.322-13.562,30.322-30.321V90.978C485.211,74.216,471.647,60.651,454.889,60.651z M454.889,121.305H90.978
			V90.978h363.911V121.305z" />
        <path
            d="M106.139,212.282C47.504,212.282,0,259.784,0,318.416C0,377.059,47.504,424.56,106.139,424.56
			c58.64,0,106.144-47.501,106.144-106.144C212.282,259.784,164.778,212.282,106.139,212.282z M84.7,382.747l-53.604-53.605
			l21.438-21.44l32.166,32.16l75.042-75.042l21.443,21.441L84.7,382.747z" />
    </symbol>

    <symbol id="cache_machine" xmlns="http://www.w3.org/2000/svg" viewBox="0 0 581.176 581.176">
        <path
            d="M508.529,308.75V163.456h-72.647v-36.324h72.647V54.485H326.912v72.647h72.647v36.324H236.103V54.485l-127.132,72.647
		v36.324H72.647V308.75L0,435.882v90.809h581.176v-90.809L508.529,308.75z M399.559,199.779h18.162v72.647h-18.162V199.779z
		 M363.235,199.779h18.162v72.647h-18.162V199.779z M108.971,199.779h181.618v54.485H108.971V199.779z M141.952,361.564h-32.982
		v-32.982h32.982V361.564z M177.598,415.711h-32.304v-32.304h32.304V415.711z M208.013,361.564h-32.958v-32.982h32.958V361.564z
		 M242.133,415.711h-32.207v-32.304h32.207V415.711z M274.097,361.564h-33.079v-32.982h33.079V361.564z M306.74,415.711h-32.304
		v-32.304h32.304V415.711z M307.079,328.583h33.079v32.982h-33.079V328.583z M371.275,415.711h-32.207v-32.304h32.207V415.711z
		 M373.164,328.583h32.982v32.982h-32.982V328.583z M435.882,415.711h-32.304v-32.304h32.304V415.711z M435.882,199.779h18.162
		v72.647h-18.162V199.779z M472.206,361.564h-32.982v-32.982h32.982V361.564z M490.368,272.426h-18.162v-72.647h18.162V272.426z" />
    </symbol>

    <symbol id="delivery_car" viewBox="0 0 512 512" xmlns="http://www.w3.org/2000/svg">
        <path
            d="M401.8,206.5c-1.4-2-3.7-3.2-6.1-3.2h-46.5v-19.8c0-4.1-3.4-7.5-7.5-7.5H173.2c-4.1,0-7.5,3.4-7.5,7.5v121.2    c0,4.1,3.4,7.5,7.5,7.5h21.2c3.9,13.6,16.5,23.7,31.3,23.7s27.4-10,31.3-23.7h83.1c3.9,13.6,16.5,23.7,31.3,23.7    s27.4-10,31.3-23.7h15.5c4.1,0,7.5-3.4,7.5-7.5V243c0-1.6-0.5-3.1-1.4-4.3L401.8,206.5z M410.8,245.2h-33.6v-26.8h14.7    L410.8,245.2z M180.7,191.1h153.5v106.2h-76.5c-2.9-15.1-16.1-26.5-32-26.5s-29.2,11.4-32,26.5h-13V191.1z M225.7,320.9    c-9.7,0-17.6-7.9-17.6-17.6s7.9-17.6,17.6-17.6s17.6,7.9,17.6,17.6S235.4,320.9,225.7,320.9z M371.5,320.9    c-9.7,0-17.6-7.9-17.6-17.6s7.9-17.6,17.6-17.6s17.6,7.9,17.6,17.6S381.2,320.9,371.5,320.9z M403.5,297.3    c-2.9-15.1-16.1-26.5-32-26.5c-8.6,0-16.5,3.4-22.3,8.9v-61.3h12.9v34.3c0,4.1,3.4,7.5,7.5,7.5h41.3v37.1H403.5z" />
        <path
            d="M93.6,191.1h53.5c4.1,0,7.5-3.4,7.5-7.5s-3.4-7.5-7.5-7.5H93.6c-4.1,0-7.5,3.4-7.5,7.5S89.5,191.1,93.6,191.1z" />
        <path
            d="M147.1,203.4h-41.2c-4.1,0-7.5,3.4-7.5,7.5s3.4,7.5,7.5,7.5h41.2c4.1,0,7.5-3.4,7.5-7.5S151.3,203.4,147.1,203.4z" />
        <path
            d="M147.1,230.7h-26c-4.1,0-7.5,3.4-7.5,7.5s3.4,7.5,7.5,7.5h26c4.1,0,7.5-3.4,7.5-7.5S151.3,230.7,147.1,230.7z" />
        <path
            d="M147.1,258h-9c-4.1,0-7.5,3.4-7.5,7.5s3.4,7.5,7.5,7.5h9c4.1,0,7.5-3.4,7.5-7.5S151.3,258,147.1,258z" />
    </symbol>

    <symbol id="bell" xmlns="http://www.w3.org/2000/svg" xmlns:xlink="http://www.w3.org/1999/xlink"
        viewBox="0 0 64 64">

        <path
            d="M56,44c-1.832,0-4-2.168-4-4V20C52,8.973,43.027,0,32,0S12,8.973,12,20v20c0,1.793-2.207,4-4,4
		c-2.211,0-4,1.789-4,4s1.789,4,4,4h48c2.211,0,4-1.789,4-4S58.211,44,56,44z" />
        <path d="M32,64c4.418,0,8-3.582,8-8H24C24,60.418,27.582,64,32,64z" />
    </symbol>

    <symbol id="user" xmlns="http://www.w3.org/2000/svg" xmlns:xlink="http://www.w3.org/1999/xlink"
        viewBox="0 0 273.052 273.052">
        <circle cx="138.173" cy="73.52" r="73.52" />
        <path
            d="M126.381,171.369c6.728,3.236,17.65,3.236,24.378,0l67.047-32.243
		c6.734-3.236,13.989-0.082,16.208,7.054l20.032,64.35c2.219,7.136,0.234,17.65-4.433,23.48l-1.137,1.425
		c-3.807,4.759-11.058,8.784-17.661,24.797c-2.85,6.913-10.378,12.82-17.846,12.82H63.043c-7.473,0-14.99-5.901-17.873-12.793
		c-6.679-15.947-14.163-19.776-18.259-24.291l-3.263-3.612c-5.015-5.537-6.995-15.719-4.427-22.735L42.5,145.974
		c2.567-7.016,10.106-10.079,16.839-6.842L126.381,171.369z" />
    </symbol>

    <symbol id="teacher" xmlns="http://www.w3.org/2000/svg" viewBox="0 0 96 96">
        <path
            d="M51,38.85c-6.84,0-12.19-7.1-12.2-16.15,0-.65-.33-8.9,4.14-12.19C45,9,47.75,8.76,51.09,9.94c3.33-1.18,6.09-1,8.2.57,4.55,3.36,4.15,11.85,4.13,12.21C63.42,31.59,57.83,38.85,51,38.85ZM47.13,11.18a5,5,0,0,0-3.06.94c-3.69,2.72-3.32,10.42-3.32,10.5v.05c0,8,4.48,14.18,10.2,14.18s10.47-6.36,10.47-14.18c0-.13.36-7.84-3.32-10.56-1.58-1.16-3.78-1.24-6.53-.22a1,1,0,0,1-.34.06H51a1,1,0,0,1-.35-.06A10.22,10.22,0,0,0,47.13,11.18Z" />
        <path
            d="M63.13,27.16a2.69,2.69,0,0,1-1.51-.47A1,1,0,0,1,62.71,25a.78.78,0,0,0,.42.14c.65,0,1.38-1.07,1.38-2.49s-.73-2.48-1.38-2.48a1.06,1.06,0,0,0-.29.15,1,1,0,0,1-1.31-.22,1,1,0,0,1,.06-1.32,7.5,7.5,0,0,0,1.9-5.16c-.15-2-1.39-3.94-3.69-5.71a1,1,0,0,1-.34-.46,4.84,4.84,0,0,0-3.49-3C51.5,3.11,44.38,5,42,6.87c-6.29,5.07-1.49,11.8-1.28,12.09a1,1,0,0,1-1.33,1.44,1.65,1.65,0,0,0-.58-.21c-.64,0-1.37,1.06-1.37,2.48s.73,2.49,1.37,2.49a.78.78,0,0,0,.42-.14,1,1,0,0,1,1.39.29,1,1,0,0,1-.29,1.38,2.75,2.75,0,0,1-1.52.47c-1.89,0-3.37-2-3.37-4.49,0-2.17,1.1-3.93,2.62-4.38-1.35-2.85-2.9-8.48,2.7-13C43.51,3.14,51.24,1,56.54,2.54a6.88,6.88,0,0,1,4.7,4c2.64,2.09,4.06,4.43,4.25,7a8.68,8.68,0,0,1-1.2,4.93,4.58,4.58,0,0,1,2.22,4.23C66.51,25.19,65,27.16,63.13,27.16Z" />
        <path
            d="M51,47a1.06,1.06,0,0,1-.31-.05c-3.75-1.21-6.79-7.23-7.13-7.92a1,1,0,0,1-.06-.73l.85-2.76a1,1,0,0,1,1.92.59l-.74,2.37c.93,1.77,3.23,5.45,5.47,6.43,2.24-1,4.54-4.66,5.46-6.43l-.72-2.32a1,1,0,0,1,.66-1.25,1,1,0,0,1,1.25.66l.84,2.71a.93.93,0,0,1-.06.73c-.33.69-3.38,6.71-7.13,7.92A1,1,0,0,1,51,47Z" />
        <path
            d="M20.47,59.67h-.09a1,1,0,0,1-.91-1.09,53.81,53.81,0,0,1,1.71-9.41,6.45,6.45,0,0,1,4.11-4.44c6-2.08,18.63-7.06,18.75-7.11a1,1,0,0,1,.73,1.87c-.12,0-12.81,5-18.82,7.13a4.41,4.41,0,0,0-2.83,3.06,51.27,51.27,0,0,0-1.65,9.08A1,1,0,0,1,20.47,59.67Z" />
        <path
            d="M68.25,94H33.55a1,1,0,0,1-1-.77l-1-4.16-1,4.16a1,1,0,0,1-1,.77H19.39a1,1,0,0,1-1-.74L15.93,84a1,1,0,0,1,1.93-.52L20.16,92h8.71l1.76-7.56a1,1,0,0,1,1-.77,1,1,0,0,1,1,.77L34.35,92H67.77l2.47-3.14a1,1,0,0,1,.9-.38,1,1,0,0,1,.79.57l1.21,2.57h9.17a234.6,234.6,0,0,0-5-42.26,4.47,4.47,0,0,0-3.09-3.31,140.63,140.63,0,0,1-17.21-6.59,1,1,0,1,1,.86-1.81,137,137,0,0,0,16.93,6.48,6.46,6.46,0,0,1,4.46,4.8,236.19,236.19,0,0,1,5,43.67,1,1,0,0,1-.28.72,1,1,0,0,1-.72.3H72.51a1,1,0,0,1-.91-.57l-.79-1.68L69,93.62A1,1,0,0,1,68.25,94Z" />
        <path
            d="M51,83.08a1,1,0,0,1-.71-.3c-1.62-1.62-6.55-30.87-8.6-43.37a1,1,0,0,1,2-.32c2.12,13,5.6,32.83,7.34,39.88,1.74-7,5.21-26.84,7.33-39.77a1,1,0,1,1,2,.33c-2,12.46-7,41.63-8.6,43.25A1,1,0,0,1,51,83.08Z" />
        <path
            d="M54.56,67.29a1,1,0,0,1-1-.81L51,52.52l-2.63,14a1,1,0,0,1-2-.37l2.7-14.31-1.34-1.73a1,1,0,0,1,0-1.19l2.45-3.5A1,1,0,0,1,51,45h0a1,1,0,0,1,.82.42l2.45,3.5a1,1,0,0,1,0,1.19L52.85,51.8l2.69,14.31a1,1,0,0,1-.79,1.16A.65.65,0,0,1,54.56,67.29ZM49.74,49.43l1.16,1.5L51,51l0-.06,1.17-1.5L51,47.7Z" />
        <path
            d="M31.61,85.67h-.1a1,1,0,0,1-.9-1.09c0-.13,1.22-12.66-2.71-22.48a1,1,0,0,1,.56-1.3,1,1,0,0,1,1.3.56c4.12,10.28,2.9,22.89,2.84,23.42A1,1,0,0,1,31.61,85.67Z" />
        <path
            d="M71,90.48h0a1,1,0,0,1-1-1c0-.9.76-22.15,2-29a1,1,0,1,1,2,.37c-1.26,6.66-2,28.44-2,28.66A1,1,0,0,1,71,90.48Z" />
        <path
            d="M17.53,84.77c-.42,0-.69,0-.73,0a1,1,0,0,1-.88-.79s-.8-3.68-2.74-5.38c-2.79-2.44-1.2-12.65.71-15.07a2.26,2.26,0,0,1,2-.93,4.18,4.18,0,0,1,2.38,1.2L17.84,60a2.18,2.18,0,0,1,2.72-2.34,2.55,2.55,0,0,1,2.24,2.18,38.77,38.77,0,0,0,.85,4.44A56.3,56.3,0,0,1,24.73,70a20.7,20.7,0,0,1-.12,5.68A24.78,24.78,0,0,0,24.37,81a1,1,0,0,1-.13.59C22.55,84.43,19.06,84.77,17.53,84.77ZM15.72,64.56c-.05,0-.13,0-.26.18-1.62,2.05-2.59,10.89-1,12.33a12.42,12.42,0,0,1,3.18,5.69c1.16,0,3.49-.28,4.67-2a27.42,27.42,0,0,1,.28-5.48,18.21,18.21,0,0,0,.11-5.12,52.55,52.55,0,0,0-1-5.47,38.87,38.87,0,0,1-.9-4.7c0-.15,0-.24-.71-.42a.21.21,0,0,0-.2,0,.15.15,0,0,0-.06.15l.74,7.1a1,1,0,0,1-.67,1,1,1,0,0,1-1.17-.42c-.87-1.39-2.27-2.92-3-3Z" />
        <path
            d="M25.55,85.43a1.06,1.06,0,0,1-.51-.14,5.6,5.6,0,0,1-2.71-4.19,1,1,0,1,1,2-.22,3.59,3.59,0,0,0,.62,1.64,3.63,3.63,0,0,0,1.12,1,1,1,0,0,1,.35,1.37A1,1,0,0,1,25.55,85.43Z" />
        <path
            d="M19.58,68a1,1,0,0,1-1-.87L13.24,26.4a1,1,0,0,1,2-.26l5.35,40.72A1,1,0,0,1,19.71,68Z" />
        <path
            d="M14.24,27.27a1,1,0,0,1-.21-2,1,1,0,0,1,1.19.79,1,1,0,0,1-.77,1.17h-.21Z" />

    </symbol>

    <symbol id="student" xmlns="http://www.w3.org/2000/svg" viewBox="0 0 96 96">
        <path
            d="M70.16,20.67a1,1,0,0,1-.37-1.93l9.35-3.69-31.86-11-31.86,11,8.63,3.42a1,1,0,0,1-.33,1.94h0a1,1,0,0,1-.37-.07L12.17,15.92a1,1,0,0,1,0-1.88L47,2.05a1,1,0,0,1,.65,0L82.34,14a1,1,0,0,1,.67.89,1,1,0,0,1-.55,1l-.1,0L70.52,20.6A.92.92,0,0,1,70.16,20.67Z" />
        <path d="M82,33.75a1,1,0,0,1-1-1V15a1,1,0,1,1,2,0V32.75A1,1,0,0,1,82,33.75Z" />
        <path
            d="M82,38.59a3.42,3.42,0,1,1,3.42-3.42A3.42,3.42,0,0,1,82,38.59Zm0-4.84a1.42,1.42,0,1,0,1.42,1.42A1.43,1.43,0,0,0,82,33.75Z" />
        <path
            d="M82,48.28c-1.28,0-3.42-.71-3.42-5.44A16.25,16.25,0,0,1,80,37a1,1,0,1,1,1.84.78,14.52,14.52,0,0,0-1.3,5.1c0,1.57.25,3.44,1.42,3.44s1.42-1.87,1.42-3.44a14.31,14.31,0,0,0-1.3-5.1A1,1,0,0,1,84,37a16.51,16.51,0,0,1,1.45,5.88C85.41,47.57,83.27,48.28,82,48.28Z" />
        <path
            d="M70.49,27.9l-.17,0a136.57,136.57,0,0,0-47.12,0,1,1,0,0,1-.81-.22A1,1,0,0,1,22,26.9c0-2.47,0-4.93,0-7.4a1,1,0,0,1,.84-1,146.08,146.08,0,0,1,48.21.3,1,1,0,0,1,.83,1q-.21,3.56-.47,7.11a1,1,0,0,1-.38.71A1,1,0,0,1,70.49,27.9ZM46.76,23.84a138.83,138.83,0,0,1,22.81,1.88l.33-5.08a143.87,143.87,0,0,0-45.84-.28c0,1.79,0,3.57,0,5.35A139,139,0,0,1,46.76,23.84Z" />
        <path
            d="M47,72.59c-8,0-22.89-7.86-22.89-22.9a1,1,0,0,1,2,0c0,13.72,13.6,20.9,20.89,20.9s20.89-7.18,20.89-20.9a1,1,0,0,1,2,0C69.88,64.73,55,72.59,47,72.59Z" />
        <path
            d="M70.44,55a3.22,3.22,0,0,1-2.31-1.11,1,1,0,1,1,1.52-1.3,1.32,1.32,0,0,0,.79.41c.66,0,1.65-1.57,1.65-4a5.16,5.16,0,0,0-1.22-3.76,1,1,0,1,1,1.25-1.55c1.22,1,2,3,2,5.31C74.09,52.43,72.52,55,70.44,55Z" />
        <path
            d="M23.54,55c-2.08,0-3.65-2.56-3.65-6,0-2.3.76-4.33,2-5.31a1,1,0,1,1,1.26,1.55A5.16,5.16,0,0,0,21.89,49c0,2.38,1,4,1.65,4a1.3,1.3,0,0,0,.8-.43,1,1,0,1,1,1.51,1.3A3.21,3.21,0,0,1,23.54,55Z" />
        <path
            d="M25.1,50.69a1,1,0,0,1-.76-.34c-.29-.34-7-8.33-2.26-23.75a1,1,0,0,1,1.91.59c-3,9.76-1.11,16.31.45,19.52.71-5.42,2.46-15.62,5.72-17.36,2.29-1.23,9.51-.27,15.16.75a9.86,9.86,0,0,0,3.34,0c5.65-1,12.87-2,15.16-.75,3.26,1.74,5,11.91,5.72,17.34,1.55-3.24,3.46-9.8.45-19.5a1,1,0,1,1,1.91-.59C76.68,42,69.93,50,69.64,50.35a1,1,0,0,1-1.06.29,1,1,0,0,1-.69-.85c-.71-7-2.74-17.46-5-18.68-1-.56-5.23-.6-13.87,1a11,11,0,0,1-4,0c-7.12-1.28-12.56-1.65-13.87-1-2.27,1.22-4.3,11.66-5,18.68a1,1,0,0,1-.69.85A.79.79,0,0,1,25.1,50.69Z" />
        <path
            d="M82.39,94H11.59a1,1,0,0,1-1-1,18,18,0,0,1,18-18H40.5a1,1,0,0,1,0,2H28.58a16,16,0,0,0-16,15H81.35A16,16,0,0,0,65.4,77H53.47a1,1,0,0,1,0-2H65.4a18,18,0,0,1,18,18A1,1,0,0,1,82.39,94Z" />
        <path
            d="M47,79.65a10.21,10.21,0,0,1-7.19-2.93A1,1,0,0,1,39.5,76v-5.8a1,1,0,0,1,2,0v5.37a8.28,8.28,0,0,0,11,0V70.21a1,1,0,0,1,2,0V76a1,1,0,0,1-.29.71A10.21,10.21,0,0,1,47,79.65Z" />
    </symbol>

    <symbol id="group" xmlns="http://www.w3.org/2000/svg" xmlns:xlink="http://www.w3.org/1999/xlink"
        viewBox="0 0 736.605 736.605">
        <path
            d="M554.316,200.396c34.705,0,62.935-28.234,62.935-62.948c0-34.714-28.229-62.949-62.935-62.949
       c-34.733,0-62.992,28.234-62.992,62.949C491.324,172.162,519.583,200.396,554.316,200.396z M554.316,93.928
       c23.99,0,43.506,19.525,43.506,43.52c0,23.994-19.516,43.52-43.506,43.52c-24.019,0-43.563-19.526-43.563-43.52
       C510.753,113.453,530.298,93.928,554.316,93.928z" />
        <path
            d="M182.318,198.861c34.709,0,62.949-28.234,62.949-62.949c0-34.704-28.24-62.934-62.949-62.934
       c-34.733,0-62.992,28.23-62.992,62.934C119.326,170.627,147.584,198.861,182.318,198.861z M182.318,92.407
       c23.994,0,43.52,19.521,43.52,43.505c0,23.995-19.526,43.52-43.52,43.52c-24.019,0-43.563-19.525-43.563-43.52
       C138.754,111.928,158.299,92.407,182.318,92.407z" />
        <path
            d="M236.286,503.463h-1.841c-19.327,0-36.142-17.312-36.142-36.638V247.418c0-7.305,1.812-14.824,4.298-22.353
       c0.981-2.963,0.753-6.348-1.073-8.879c-1.826-2.525-4.478-4.158-7.597-4.158h-76.004c-30.279,0.005-55.624,27.613-55.624,51.131
       v177.767c0,5.362,6.203,9.112,11.57,9.112h27.287v200.24c0,5.362,5.11,8.616,10.472,8.616h124.654
       c5.362,0,10.588-3.254,10.588-8.616v-138.69C246.874,506.222,241.653,503.463,236.286,503.463z M227.446,639.463H120.588V440.922
       c0-5.362-3.589-10.316-8.957-10.316h-29.9V263.16c0-12.653,16.276-31.693,36.195-31.693h63.498
       c-0.967,4.857-2.55,10.773-2.55,15.956V466.83c0,27.365,19.429,50.082,48.572,53.904V639.463z" />
        <path
            d="M514.017,466.825V247.418c0-28.623-28.486-59.67-66.271-59.67H288.845c-36.108,0-66.256,31.688-66.256,59.67v219.407
       c0,5.362,6.494,7.494,11.856,7.494h36.715V725.21c0,5.362,4.537,11.396,9.899,11.396h174.488c5.362,0,9.898-6.028,9.898-11.396
       V474.319h36.701C507.509,474.319,514.017,472.192,514.017,466.825z M494.589,454.891h-39.042c-5.362,0-9.53,6.572-9.53,11.935
       v250.352H290.588V466.825c0-5.362-4.163-11.935-9.53-11.935h-39.042V247.418c0-16.543,20.905-40.241,46.828-40.241h158.906
       c27.277,0,46.843,23.489,46.843,40.241v207.473H494.589z" />
        <path
            d="M368.322,150.834c41.572,0,75.388-33.825,75.388-75.402C443.71,33.84,409.89,0,368.322,0
       c-41.616,0-75.47,33.84-75.47,75.427C292.852,117.009,326.706,150.834,368.322,150.834z M368.322,19.429
       c30.857,0,55.959,25.121,55.959,55.998c0,30.862-25.102,55.974-55.959,55.974c-30.901,0-56.042-25.111-56.042-55.974
       C312.28,44.55,337.421,19.429,368.322,19.429z" />
        <path
            d="M618.664,212.034h-75.432c-3.069,0-5.959,2.346-7.791,4.809c-1.831,2.463-1.836,6.091-0.956,9.035
       c2.161,7.237,3.817,14.78,3.817,21.541v219.407c0,19.326-16.835,36.638-36.156,36.638h-1.826c-5.362,0-10.589,2.754-10.589,8.121
       v140.211c0,5.362,5.222,11.953,10.589,11.953h124.668c5.362,0,10.457-6.586,10.457-11.953V450.034h27.288
       c5.362,0,11.569-2.225,11.569-7.587V264.705C674.303,240.638,650.357,212.034,618.664,212.034z M654.874,430.605h-29.886
       c-5.362,0-8.972,6.475-8.972,11.842v201.872H509.16v-123.59c29.143-3.832,48.571-26.544,48.571-53.904V247.418
       c0-4.644-1.511-11.099-2.298-15.956h63.23c20.974,0,36.21,20.415,36.21,33.242V430.605z" />
    </symbol>

    <symbol id="course_catalog" viewBox="0 0 22.079 22.079" xmlns="http://www.w3.org/2000/svg">
        <path
            d="M21.994,21.522l-3.568-4.014a.336.336,0,0,0-.25-.111H13.86l2.216-2.016h3.885a.334.334,0,0,0,.334-.334V2.341a.335.335,0,0,0-.334-.334H17.849V.335A.335.335,0,0,0,17.515,0H12.854a2.145,2.145,0,0,0-1.815,1.009A2.142,2.142,0,0,0,9.225,0H4.564A.334.334,0,0,0,4.23.335V2.007H2.119a.335.335,0,0,0-.335.334V15.047a.334.334,0,0,0,.335.334H6L8.219,17.4H3.9a.336.336,0,0,0-.25.111L.085,21.522a.334.334,0,0,0,.25.557h21.41A.337.337,0,0,0,21.994,21.522ZM11.374,2.149a1.482,1.482,0,0,1,1.48-1.48H17.18v11.56H12.854a2.146,2.146,0,0,0-1.48.592ZM4.9.669H9.225a1.482,1.482,0,0,1,1.48,1.48V12.821a2.146,2.146,0,0,0-1.48-.592H4.9ZM6.358,14.8a.34.34,0,0,0-.225-.086H2.453V2.676H4.23v9.887a.334.334,0,0,0,.334.335H9.225a1.482,1.482,0,0,1,1.48,1.48.335.335,0,0,0,.669,0,1.482,1.482,0,0,1,1.48-1.48h4.661a.335.335,0,0,0,.334-.335V2.676h1.777V14.713h-3.68a.34.34,0,0,0-.225.086l-4.682,4.257ZM1.08,21.41l2.973-3.345h4.9c.093.042,2,1.934,2.084,1.778.079.16,2-1.741,2.085-1.778h4.9L21,21.41Z" />
    </symbol>

    <symbol id="certificate_diploma" viewBox="0 0 22.079 22.081" xmlns="http://www.w3.org/2000/svg">
        <path
            d="M22.079.335v13.38a.335.335,0,1,1-.669,0V.669H.668V21.41H13.715a.335.335,0,1,1,0,.669H.334A.334.334,0,0,1,0,21.744V.335A.334.334,0,0,1,.334,0h21.41A.335.335,0,0,1,22.079.335ZM19.068,12.712a.335.335,0,0,0,.335-.335V5.687a.334.334,0,0,0-.335-.334,2.345,2.345,0,0,1-2.342-2.342.335.335,0,0,0-.334-.335H5.687a.334.334,0,0,0-.334.335A2.345,2.345,0,0,1,3.011,5.353a.334.334,0,0,0-.335.334v10.7a.334.334,0,0,0,.335.334,2.345,2.345,0,0,1,2.342,2.342.334.334,0,0,0,.334.335h6.244a.335.335,0,0,0,0-.669H6a3.018,3.018,0,0,0-2.658-2.658V6A3.018,3.018,0,0,0,6,3.345H16.076A3.016,3.016,0,0,0,18.733,6v6.374A.335.335,0,0,0,19.068,12.712Zm2.989,3.313-.479,1.259.479,1.26a.335.335,0,0,1-.13.4l-1.128.736-.352,1.3a.334.334,0,0,1-.339.247l-1.346-.067c-.137.075-1.094.973-1.259.919-.17.051-1.118-.84-1.26-.919l-1.346.067a.324.324,0,0,1-.339-.247l-.353-1.3-1.128-.736a.335.335,0,0,1-.129-.4l.479-1.26-.479-1.259a.335.335,0,0,1,.129-.4l1.128-.737.353-1.3a.323.323,0,0,1,.339-.246l1.346.067,1.049-.846a.338.338,0,0,1,.421,0l1.049.846,1.346-.067a.318.318,0,0,1,.339.247l.352,1.3,1.128.737A.335.335,0,0,1,22.057,16.025Zm-.721.014-1.01-.659c-.188-.07-.379-1.194-.454-1.357-.173-.021-1.31.146-1.431-.013l-.938-.757c-.15.083-.978.89-1.166.83l-1.2-.06c-.074.157-.268,1.292-.456,1.357l-1.009.659.429,1.126c.113.167-.394,1.189-.429,1.365.127.118,1.146.653,1.149.852l.316,1.163c.015,0,1.206-.061,1.22-.06.176-.044,1,.747,1.149.83.149-.083.978-.889,1.165-.83l1.2.06c.073-.156.268-1.291.454-1.356l1.01-.659L20.907,17.4C20.793,17.237,21.3,16.213,21.336,16.039Zm-4.944-5.334H12.824a.335.335,0,0,0,0,.669h3.568A.335.335,0,0,0,16.392,10.705Zm-5.018.335a.335.335,0,0,0-.334-.335H5.687a.335.335,0,0,0,0,.669H11.04A.335.335,0,0,0,11.374,11.04Zm5.018-3.012H9.7a.335.335,0,0,0,0,.669h6.691A.335.335,0,0,0,16.392,8.028Zm-10.7,0a.335.335,0,0,0,0,.669h2.23a.335.335,0,0,0,0-.669Zm8.029-2.007a.335.335,0,0,0,0-.669H8.363a.335.335,0,0,0,0,.669ZM13.6,13.716a.335.335,0,0,0-.335-.334H9.7a.334.334,0,1,0,0,.668h3.567A.334.334,0,0,0,13.6,13.716Zm-5.352,0a.335.335,0,0,0-.335-.334H5.687a.334.334,0,1,0,0,.668h2.23A.334.334,0,0,0,8.252,13.716Zm-.333,3.189c1.108.04,2.125-1.162,3.191-.381a.334.334,0,1,0,.391-.542,2.446,2.446,0,0,0-2.6-.015,1.8,1.8,0,0,1-1.86.015.334.334,0,0,0-.467.075C6.268,16.7,7.449,16.892,7.919,16.905ZM17.5,19.4a2.119,2.119,0,0,1,0-4.238A2.119,2.119,0,0,1,17.5,19.4Zm0-3.568a1.45,1.45,0,0,0,0,2.9A1.45,1.45,0,0,0,17.5,15.835Z" />
    </symbol>

    <symbol id="list_catalog" viewBox="0 0 22.078 22.079" xmlns="http://www.w3.org/2000/svg">
        <path
            d="M14.607,21.41H1.673a1,1,0,0,1-1-1V1.673a1,1,0,0,1,1-1h3.68v1A1.674,1.674,0,0,0,7.025,3.345h5.352A1.674,1.674,0,0,0,14.05,1.673v-1h3.68a1,1,0,0,1,1,1V9.254a.335.335,0,0,0,.67,0V1.673A1.675,1.675,0,0,0,17.73,0H1.673A1.675,1.675,0,0,0,0,1.673V20.406a1.675,1.675,0,0,0,1.673,1.673H14.607A.335.335,0,0,0,14.607,21.41ZM6.022.669h7.36v1a1,1,0,0,1-1,1H7.025a1,1,0,0,1-1-1Zm6.914,5.8h-2.23a.335.335,0,0,1,0-.669h2.23A.335.335,0,0,1,12.936,6.468ZM4.712,5.8H8.921a.335.335,0,0,1,0,.669H4.712A.335.335,0,0,1,4.712,5.8Zm-1.784.669c-.273,0-.781.079-.781-.335s.508-.331.781-.334A.335.335,0,0,1,2.928,6.468ZM12.936,9.59H8.921a.335.335,0,0,1,0-.669h4.015A.335.335,0,0,1,12.936,9.59ZM4.712,8.921H7.137a.335.335,0,0,1,0,.669H4.712A.335.335,0,0,1,4.712,8.921ZM2.928,9.59H2.481a.335.335,0,0,1,0-.669h.447A.335.335,0,0,1,2.928,9.59Zm10.008,3.123h-2.23a.335.335,0,0,1,0-.669h2.23A.335.335,0,0,1,12.936,12.713Zm-4.015,0H4.712a.335.335,0,0,1,0-.669H8.921A.335.335,0,0,1,8.921,12.713Zm-5.993,0H2.481a.335.335,0,0,1,0-.669h.447A.335.335,0,0,1,2.928,12.713Zm5.993,3.122H4.712a.335.335,0,0,1,0-.669H8.921A.335.335,0,0,1,8.921,15.835Zm-5.993,0c-.273,0-.781.08-.781-.334s.508-.331.781-.335A.335.335,0,0,1,2.928,15.835Zm5.993,3.123H4.712a.335.335,0,0,1,0-.669H8.921A.335.335,0,0,1,8.921,18.958Zm-5.993,0c-.273,0-.781.08-.781-.335s.508-.33.781-.334A.335.335,0,0,1,2.928,18.958ZM22.072,13.09a1.438,1.438,0,0,0-1.765-1.259,1.447,1.447,0,0,0-1.99-.583,1.473,1.473,0,0,0-1.471-.231V6.958c-.028-1.524-2.627-1.52-2.655,0v8.216c-2.1-.485-5.019.363-4,2.762a.335.335,0,0,0,.351.153,6.531,6.531,0,0,1,2.029-.164c1.224.351,2.441,1.865,3.535,2.307v1.512a.334.334,0,0,0,.334.334h5.307a.333.333,0,0,0,.334-.334V13.19A.879.879,0,0,0,22.072,13.09Zm-.662,8.319H16.772V20.294H21.41Zm0-1.784H16.437c-1.084-.373-2.377-2.015-3.664-2.337a5.757,5.757,0,0,0-2.066.088c-.505-1.845,2.766-1.81,3.728-1.456a.337.337,0,0,0,.425-.322V6.958c.009-.632,1.308-.644,1.317,0v4.729a.336.336,0,0,0,.6.2.788.788,0,0,1,1.23,0,.337.337,0,0,0,.239.135c.291,0,.467-.346.784-.3a.772.772,0,0,1,.751.607.334.334,0,0,0,.189.235c.23.11.433-.135.67-.107a.775.775,0,0,1,.769.73Z" />

    </symbol>

    <symbol id="pencil" xmlns="http://www.w3.org/2000/svg" viewBox="0 0 24 24">
        <path
            d="M21.707,5.565,18.435,2.293a1,1,0,0,0-1.414,0L3.93,15.384a.991.991,0,0,0-.242.39l-1.636,4.91A1,1,0,0,0,3,22a.987.987,0,0,0,.316-.052l4.91-1.636a.991.991,0,0,0,.39-.242L21.707,6.979A1,1,0,0,0,21.707,5.565ZM7.369,18.489l-2.788.93.93-2.788,8.943-8.944,1.859,1.859ZM17.728,8.132l-1.86-1.86,1.86-1.858,1.858,1.858Z" />
    </symbol>

    <symbol id="flag" viewBox="0 0 16 16" xmlns="http://www.w3.org/2000/svg">
        <path
            d="M14.778.085A.5.5 0 0 1 15 .5V8a.5.5 0 0 1-.314.464L14.5 8l.186.464-.003.001-.006.003-.023.009a12.435 12.435 0 0 1-.397.15c-.264.095-.631.223-1.047.35-.816.252-1.879.523-2.71.523-.847 0-1.548-.28-2.158-.525l-.028-.01C7.68 8.71 7.14 8.5 6.5 8.5c-.7 0-1.638.23-2.437.477A19.626 19.626 0 0 0 3 9.342V15.5a.5.5 0 0 1-1 0V.5a.5.5 0 0 1 1 0v.282c.226-.079.496-.17.79-.26C4.606.272 5.67 0 6.5 0c.84 0 1.524.277 2.121.519l.043.018C9.286.788 9.828 1 10.5 1c.7 0 1.638-.23 2.437-.477a19.587 19.587 0 0 0 1.349-.476l.019-.007.004-.002h.001M14 1.221c-.22.078-.48.167-.766.255-.81.252-1.872.523-2.734.523-.886 0-1.592-.286-2.203-.534l-.008-.003C7.662 1.21 7.139 1 6.5 1c-.669 0-1.606.229-2.415.478A21.294 21.294 0 0 0 3 1.845v6.433c.22-.078.48-.167.766-.255C4.576 7.77 5.638 7.5 6.5 7.5c.847 0 1.548.28 2.158.525l.028.01C9.32 8.29 9.86 8.5 10.5 8.5c.668 0 1.606-.229 2.415-.478A21.317 21.317 0 0 0 14 7.655V1.222z" />
    </symbol>

    <symbol id="trashbin" xmlns="http://www.w3.org/2000/svg" viewBox="0 0 14 14">
        <path
            d="m 5.4999377,5.7501979 v 4.5001871 q 0,0.109505 -0.070503,0.179508 -0.070503,0.07 -0.1795074,0.0705 H 4.7499064 q -0.1095045,0 -0.1795075,-0.0705 -0.070003,-0.0705 -0.070503,-0.179508 V 5.7501979 q 0,-0.1095045 0.070503,-0.1795075 0.070503,-0.070003 0.1795075,-0.070503 h 0.5000209 q 0.1095045,0 0.1795074,0.070503 0.070003,0.070503 0.070503,0.1795075 z m 2.0000833,0 v 4.5001871 q 0,0.109505 -0.070503,0.179508 -0.070503,0.07 -0.1795075,0.0705 H 6.7499898 q -0.1095046,0 -0.1795075,-0.0705 -0.070003,-0.0705 -0.070503,-0.179508 V 5.7501979 q 0,-0.1095045 0.070503,-0.1795075 0.070503,-0.070003 0.1795075,-0.070503 h 0.5000208 q 0.1095046,0 0.1795075,0.070503 0.070003,0.070503 0.070503,0.1795075 z m 2.0000833,0 v 4.5001871 q 0,0.109505 -0.070503,0.179508 -0.070503,0.07 -0.1795075,0.0705 H 8.7500731 q -0.1095046,0 -0.1795075,-0.0705 -0.070003,-0.0705 -0.070503,-0.179508 V 5.7501979 q 0,-0.1095045 0.070503,-0.1795075 0.070503,-0.070003 0.1795075,-0.070503 H 9.250094 q 0.1095046,0 0.1795075,0.070503 0.070003,0.070503 0.070503,0.1795075 z M 10.500146,11.406934 V 4.000625 H 3.4998543 v 7.406309 q 0,0.172007 0.054502,0.316513 0.054502,0.144506 0.1135047,0.211009 0.059003,0.0665 0.082004,0.0665 h 6.500271 q 0.0235,0 0.082,-0.0665 0.0585,-0.0665 0.113504,-0.211009 0.055,-0.144506 0.0545,-0.316513 z M 5.2499273,3.0000833 H 8.7500731 L 8.3750575,2.0860453 Q 8.3205552,2.0155423 8.2420519,2.0000417 H 5.7654487 q -0.078003,0.015501 -0.1330055,0.086004 z m 7.2503017,0.2500105 v 0.5000208 q 0,0.1095046 -0.0705,0.1795075 -0.0705,0.070003 -0.179507,0.070503 h -0.750031 v 7.4063089 q 0,0.648527 -0.367016,1.121046 Q 10.766157,13 10.250136,13 H 3.7498648 Q 3.2343433,13 2.866828,12.542981 2.4993126,12.085962 2.4998127,11.437435 V 3.999625 H 1.7497814 q -0.1095046,0 -0.1795075,-0.070503 Q 1.500271,3.8586191 1.499771,3.7496146 V 3.2495937 q 0,-0.1095045 0.070503,-0.1795074 0.070503,-0.070003 0.1795075,-0.070503 H 4.163882 L 4.7109048,1.695029 Q 4.8279097,1.4060169 5.1329224,1.2030085 5.4379351,1 5.7499481,1 H 8.2500523 Q 8.5625653,1 8.867078,1.2030085 9.1715907,1.4060169 9.2890956,1.695029 l 0.5470227,1.3045543 h 2.4141007 q 0.109504,0 0.179507,0.070503 0.07,0.070503 0.0705,0.1795074 z" />
    </symbol>


    <symbol id="clock" viewBox="0 0 32 32" xmlns="http://www.w3.org/2000/svg">
        <defs>
            <style>.cls-1{fill:none;}</style>
        </defs>

        <path
            d="M16,29A13,13,0,1,1,29,16,13,13,0,0,1,16,29ZM16,5A11,11,0,1,0,27,16,11,11,0,0,0,16,5Z" />
        <path
            d="M21.5,22.5a1,1,0,0,1-.71-.29l-5.5-5.5A1,1,0,0,1,15,16V8a1,1,0,0,1,2,0v7.59l5.21,5.2a1,1,0,0,1,0,1.42A1,1,0,0,1,21.5,22.5Z" />

        <rect class="cls-1" height="32" width="32" />
    </symbol>

    <symbol id="pause" viewBox="0 0 24 24" xmlns="http://www.w3.org/2000/svg"
        style="fill-rule:evenodd;clip-rule:evenodd;stroke-linejoin:round;stroke-miterlimit:2;">

        <path
            d="M11.25,6c-0,-1.519 -1.231,-2.75 -2.75,-2.75c-0.489,0 -1.011,0 -1.5,0c-1.519,0 -2.75,1.231 -2.75,2.75c0,2.973 0,8.527 0,11.5c0,1.519 1.231,2.75 2.75,2.75c0.489,0 1.011,0 1.5,0c1.519,-0 2.75,-1.231 2.75,-2.75l-0,-11.5Zm-1.5,-0c-0,-0.69 -0.56,-1.25 -1.25,-1.25c-0.489,0 -1.011,0 -1.5,-0c-0.69,0 -1.25,0.56 -1.25,1.25c-0,2.973 0,8.527 -0,11.5c0,0.69 0.56,1.25 1.25,1.25c0.489,0 1.011,0 1.5,0c0.69,-0 1.25,-0.56 1.25,-1.25l-0,-11.5Z" />
        <path
            d="M19.75,6c-0,-1.519 -1.231,-2.75 -2.75,-2.75c-0.489,0 -1.011,0 -1.5,0c-1.519,0 -2.75,1.231 -2.75,2.75c-0,2.973 -0,8.527 -0,11.5c0,1.519 1.231,2.75 2.75,2.75c0.489,0 1.011,0 1.5,0c1.519,-0 2.75,-1.231 2.75,-2.75l-0,-11.5Zm-1.5,-0c-0,-0.69 -0.56,-1.25 -1.25,-1.25c-0.489,0 -1.011,0 -1.5,-0c-0.69,0 -1.25,0.56 -1.25,1.25c-0,2.973 -0,8.527 -0,11.5c0,0.69 0.56,1.25 1.25,1.25c0.489,0 1.011,0 1.5,0c0.69,-0 1.25,-0.56 1.25,-1.25l-0,-11.5Z" />
    </symbol>

    <symbol id="printer" viewBox="0 0 512 512" xmlns="http://www.w3.org/2000/svg">
        <path
            d="M299,203c-5.52,0-10,4.48-10,10s4.48,10,10,10c5.52,0,10-4.48,10-10S304.52,203,299,203z" />

        <path
            d="M482,163h-23h-10v-33c0-16.542-13.458-30-30-30h-10V10c0-5.522-4.478-10-10-10H193c-0.335,0-0.668,0.017-0.998,0.05    c-0.242,0.024-0.479,0.066-0.716,0.107c-0.084,0.015-0.17,0.022-0.254,0.039c-0.286,0.057-0.566,0.131-0.843,0.212    c-0.034,0.01-0.068,0.016-0.102,0.026c-0.281,0.086-0.556,0.187-0.826,0.296c-0.031,0.012-0.063,0.021-0.093,0.034    c-0.255,0.106-0.501,0.226-0.745,0.352c-0.047,0.024-0.095,0.043-0.141,0.068c-0.219,0.117-0.428,0.248-0.637,0.381    c-0.068,0.043-0.139,0.08-0.205,0.125c-0.186,0.125-0.363,0.263-0.54,0.4c-0.082,0.063-0.167,0.119-0.247,0.185    c-0.183,0.151-0.355,0.313-0.526,0.477c-0.064,0.061-0.133,0.115-0.196,0.177l-80,80c-0.063,0.063-0.116,0.132-0.177,0.196    c-0.163,0.172-0.326,0.343-0.477,0.526c-0.065,0.079-0.121,0.164-0.183,0.245c-0.138,0.178-0.276,0.355-0.402,0.543    c-0.043,0.065-0.079,0.134-0.121,0.2c-0.134,0.21-0.266,0.422-0.384,0.642c-0.025,0.046-0.044,0.095-0.068,0.141    c-0.126,0.243-0.246,0.49-0.352,0.745c-0.013,0.031-0.022,0.063-0.034,0.093c-0.109,0.27-0.21,0.545-0.296,0.826    c-0.01,0.033-0.016,0.068-0.026,0.101c-0.081,0.278-0.155,0.558-0.212,0.845c-0.016,0.079-0.023,0.16-0.037,0.24    c-0.042,0.241-0.084,0.483-0.109,0.73C103.017,89.332,103,89.665,103,90v10H93c-16.542,0-30,13.458-30,30v33H53H30    c-16.542,0-30,13.458-30,30v206c0,16.542,13.458,30,30,30h73v73c0,5.522,4.478,10,10,10h286c5.522,0,10-4.478,10-10v-73h73    c16.542,0,30-13.458,30-30V193C512,176.458,498.542,163,482,163z M409,120h10c5.514,0,10,4.486,10,10v33h-20V120z M183,34.143V80    h-45.857L183,34.143z M123,100h70c5.522,0,10-4.478,10-10V20h186v143H123V100z M83,130c0-5.514,4.486-10,10-10h10v43H83V130z     M63,183h386v50c0,5.514-4.486,10-10,10H73c-5.514,0-10-4.486-10-10V183z M389,492H123V389h266V492z M492,399    c0,5.514-4.486,10-10,10h-73v-20h10c5.522,0,10-4.478,10-10c0-5.522-4.478-10-10-10H93c-5.522,0-10,4.478-10,10    c0,5.522,4.478,10,10,10h10v20H30c-5.514,0-10-4.486-10-10v-74.67h472V399z M492,304.33H20V193c0-5.514,4.486-10,10-10h13v50    c0,16.542,13.458,30,30,30h366c16.542,0,30-13.458,30-30v-50h13c5.514,0,10,4.486,10,10V304.33z" />

        <path
            d="M339,429H173c-5.522,0-10,4.478-10,10c0,5.522,4.478,10,10,10h166c5.522,0,10-4.478,10-10    C349,433.478,344.522,429,339,429z" />

        <path
            d="M399,203h-60c-5.522,0-10,4.478-10,10c0,5.522,4.478,10,10,10h60c5.522,0,10-4.478,10-10C409,207.478,404.522,203,399,203    z" />
    </symbol>


</svg>